<?xml version="1.0" standalone="no"?>
<!DOCTYPE svg PUBLIC "-//W3C//DTD SVG 20010904//EN"
 "http://www.w3.org/TR/2001/REC-SVG-20010904/DTD/svg10.dtd">
<svg version="1.0" xmlns="http://www.w3.org/2000/svg"
 width="64.000000pt" height="64.000000pt" viewBox="0 0 64.000000 64.000000"
 preserveAspectRatio="xMidYMid meet">

<g transform="translate(0.000000,64.000000) scale(0.100000,-0.100000)"
fill="#000000" stroke="none">
<path d="M285 611 c-11 -5 -80 -70 -154 -144 -111 -112 -132 -138 -126 -156
14 -44 47 -25 175 104 69 69 132 125 140 125 8 0 71 -56 140 -125 128 -129
161 -148 175 -104 6 17 -5 33 -49 78 l-55 56 -3 70 -3 70 -30 0 c-27 0 -30 -4
-33 -34 l-3 -34 -47 46 c-49 48 -91 64 -127 48z"/>
<path d="M197 362 l-107 -107 0 -97 c0 -92 1 -97 26 -117 20 -16 41 -21 85
-21 l59 0 0 85 0 85 60 0 60 0 0 -85 0 -85 59 0 c44 0 65 5 85 21 25 20 26 25
26 117 l0 97 -108 108 c-59 59 -114 107 -122 107 -9 0 -64 -48 -123 -108z"/>
</g>
</svg>
